<mxfile host="app.diagrams.net" modified="2023-02-13T20:46:03.633Z" agent="5.0 (Windows NT 10.0; Win64; x64) AppleWebKit/537.36 (KHTML, like Gecko) Chrome/109.0.0.0 Safari/537.36" etag="ZcGBsVvXQ3BMbwMpisCW" version="20.8.20" type="github" pages="2">
  <diagram name="Page-1" id="NcUEjsxAh0gVXcgQT3K8">
    <mxGraphModel dx="651" dy="387" grid="0" gridSize="10" guides="1" tooltips="1" connect="1" arrows="1" fold="1" page="1" pageScale="1" pageWidth="827" pageHeight="1169" math="0" shadow="0">
      <root>
        <mxCell id="0" />
        <mxCell id="1" parent="0" />
        <mxCell id="DbQFe6GR1-m_I5X-onfa-5" value="&lt;blockquote style=&quot;&quot;&gt;&lt;font style=&quot;&quot;&gt;&lt;i style=&quot;&quot;&gt;&lt;font style=&quot;font-size: 100px;&quot;&gt;{&lt;/font&gt;&lt;/i&gt;&lt;span style=&quot;font-size: 54px;&quot;&gt;&amp;nbsp;&lt;/span&gt;&lt;font style=&quot;&quot; face=&quot;Comic Sans MS&quot;&gt;&lt;span style=&quot;font-size: 54px;&quot;&gt;&amp;nbsp;&lt;/span&gt;&lt;b style=&quot;&quot;&gt;&lt;font style=&quot;font-size: 80px;&quot; color=&quot;#97d077&quot;&gt;REST&lt;/font&gt;&lt;/b&gt;&lt;span style=&quot;font-size: 54px;&quot;&gt;ful &lt;/span&gt;&lt;/font&gt;&lt;b style=&quot;&quot;&gt;&lt;font style=&quot;font-size: 80px;&quot; face=&quot;Comic Sans MS&quot; color=&quot;#ffd966&quot;&gt;API&lt;/font&gt;&lt;font style=&quot;font-size: 54px;&quot; face=&quot;Comic Sans MS&quot; color=&quot;#ffd966&quot;&gt;&amp;nbsp;&lt;/font&gt;&lt;span style=&quot;font-size: 54px;&quot;&gt;&amp;nbsp;&lt;/span&gt;&lt;/b&gt;&lt;i style=&quot;&quot;&gt;&lt;font style=&quot;font-size: 100px;&quot;&gt;}&lt;/font&gt;&lt;/i&gt;&lt;/font&gt;&lt;/blockquote&gt;" style="text;strokeColor=none;align=center;fillColor=none;html=1;verticalAlign=middle;whiteSpace=wrap;rounded=0;" parent="1" vertex="1">
          <mxGeometry x="42" y="110" width="681" height="80" as="geometry" />
        </mxCell>
      </root>
    </mxGraphModel>
  </diagram>
  <diagram id="4Z_4OZ9dRdh4MgaGf9ED" name="Page-2">
    <mxGraphModel dx="651" dy="387" grid="0" gridSize="10" guides="1" tooltips="1" connect="1" arrows="1" fold="1" page="1" pageScale="1" pageWidth="827" pageHeight="1169" math="0" shadow="0">
      <root>
        <mxCell id="0" />
        <mxCell id="1" parent="0" />
        <mxCell id="s62vTvY1Cet1UzhglGSs-1" value="" style="shape=image;verticalLabelPosition=bottom;labelBackgroundColor=default;verticalAlign=top;aspect=fixed;imageAspect=0;image=https://upload.wikimedia.org/wikipedia/commons/thumb/c/cf/Angular_full_color_logo.svg/2048px-Angular_full_color_logo.svg.png;" vertex="1" parent="1">
          <mxGeometry x="102" y="439.5" width="117.5" height="117.5" as="geometry" />
        </mxCell>
        <mxCell id="s62vTvY1Cet1UzhglGSs-3" value="" style="shape=image;verticalLabelPosition=bottom;labelBackgroundColor=default;verticalAlign=top;aspect=fixed;imageAspect=0;image=data:image/png,iVBORw0KGgoAAAANSUhEUgAAANUAAADtCAMAAAAft8BxAAAA5FBMVEX///+DYcVjPp5DJXx2T8F7VcLg2u+SdcyEYsV4UcRCJHpfOJxjPZ5TM5FdNJsvAHJYLJg/H3pVKJddNZuAXcQ7GHh9WcNYLZhAIHo1C3U5FHf39frp5fFTI5aZhb3Lwd2+stWCc6TV0OB2V6mAZa+mlMXb0+1wSrerocGLfaqjmLvu7PPMxtnTy+K7r9N6XavEt+Lg3OiUiLF0YptOM4NmUpJWPoi+t8+yo82SfLmMdbbIvdttS6Sei8CrlteehtGPccqcgtC3pdxlO62MdMBKLYCwnNlrV5V3Z5xeR42mnL6yqsY5SBjlAAAHFElEQVR4nO2ciVrbOhCFEzsEjJ2drA69BVoCBFrCEqC0LL23ZXv/97mOs0ESW9KBSCN9/p9gzjfSmdFM4lRKS/yjy6vvludZO1eXR77qaD6Gz1+K9bwbaAp0ufli/ceR6ojez2W+7gaCpnhu0fqmOqr3cZ2vv5E0Elb3/lEdGY7/o7xAU6irfKU6OJS2V1msaUD+Z1d1fBC9ohstyrLcio6yesWI0zeR5eonq7vIJmZkWdrVrp3Y4zek8kV1lIJ8rbNFWVZRr8LV2+QRZXlFra7Wd47zF55BncrW5yKfKMvabKuOlRvfZfrfJFm/VAfLza88ryjLy+vi7pxWMaSoy7uE1yqGR/CT6nD54LeK8AjuqI6XC5+r/r46glpcLAGrCCn3VEfMQa8sJkoPuxCyigF1DR77YlahiSqf9VTUUtUnQauwdLhXwlZh6eCBO8LnL1BFvV6JW4UGvYXPHsDMQ74PBKyCvgUiVmF51NtAnlnZHNQPIGIVlrVJ29d95FJZ7g/VcccDWYVXpj1iEppVTMh/VR13PJBVeBXVYceDWUWZdq3yK0BXYbnEVyJGWkU2sYpJqhKrkI+fT6xiBHWrMLSrQM6f56oOOx5DrQIRZaRVUN9xZ5FZBX2rgLoKT3XY8ZhpFchYM7EKFRhqFVBXYakOO57EKiaYaRXEHyCGWgXUVSRWIZ/EKiYkswoV/EweIGOoW0UyqxhD3SqSDcg0VdTHmoK/gR6SWIUCrhKrGGOmVRDvKr6Z2VWY+AC5ivkLejTUx5qJVYyhPqsw0yqMnFWYaRXJWHMM+a7CyAeI+N/FLFOtgvoDxEyrgJaliVW8xd89vrm9X10umTk6nQ4rfbBVdI9Xayu1jY2N9FKZFzXACbTFKENnFdnbTG3Jegas1RarCpVF68KsonuTkSBpoCpaVIwuzCqOV+RoSq+txKoa6Powq7hdkaMpnd5giFosC7KK1ZosUcxUhXyIVdxJOn1pnlSFzFwuxCrupWWKYRVR2UI2IL+l3alYV3/Lm7sFWMVuRpqoqAK8gNeWgVjFmjxNfFYxYnK1EKv4Le9S8VrFzBkErMKXd6nEUpVxPNwqjiWmiv9WvU4W0lXIvFXcBjgCtoos2QM4tkGkqyB8AIdHEHqA3MvrlcQcMATdgEgUJXytBi4IPUC6hK/VQBU2q6BsFgEdbAOyK1OVsKjMv9hYc1eiBQKqapAo6rn6z0RVzuY2pKpN2i2cSh9SRbdjD1XlCheQrDt5qtLiVdhu/IFU3VDumDrrdnMPUXVN2Nodd922W8jX2ChfLCdnB6pOkGQRPoLBAQwoIB/9z0qcmwnOLXKhquoWkiy6L6xQVJAspBRTbdtHqbLt0jmSrL8kH/lOZyQqSNYhImtN3hkUSJY9oXGGqJLZDPIma3L+wmS9ILIkdu6cw4uwAE+pQh9GvZZo74AosBQH2ZJ1t3iSNSsKLMXB3bqT5YTMbtDJ5GZFgaU4Ndg4SkoXoxQ7HXtOVJAs9Du27Xs5uuLc3XE6ufUFouzSA6gqaDNuNmQIi0qW42QiNMGleIi/+/cus7JsgvgX0HFzdpSmoBRjI4wp7eySud7MzREIipYUJgsbYUjksbo+wyKHmEmWrTpqFu0CS8MCms+qw2Zx0gJkFYh/UD7lI6qq+6rDZrHXRJJF+5PyAY0GkKxT1VGzuEAMAxphSOWpJK6q9N5SvHS2oWSRL8WnQLLAbYJEsFIMbRNksl8FZJEvxV2kZoEjDIkcQH0T7X+WBSBHsPqoOmoWhpbiPtA3lZ5UR83iEErWO0YYcnhASjG0TZBJDyrF0DZBJluID7ZUR82iiySLfinGRhjYNkEi0AgD3SZI48XMEcYZUoqhxb5MDC3F50gpJj/CgEoxttiXySNQihsl1VGzgEpx80B12CySbcIEU7cJ5EcYNlKKk22CGqBtAvkRRrJNmGDqNoH8Yn/fzFJs6DbBzFKcbBOmySJfipNtwjRZ5EcY0DaBfClOtglTCqqjZmHoYt/QbQKSLA22CZC7m7lNwP+bIAlDS7GZ2wRshEG+FCPbBLuqOmoW2AjDzG1Ck/wIA/oVBvlkPUMdhuqomfwBSjH9moWMMOgPZqBtQlN10EyQUky/x0W2CU3yKxKkFNP3duS/CfQfj0gppr8oTgHbBPpvxwElwVKsRa6ERxg63KuU8DZBBw9MCY8w6I+mh4iNMDToLULEtgn0+8ARItsETcwiJfaDSPrvqwn8Iwz6X8B4BXeDQf9ft6/gLsXYd8NUwVmK6Q9v38D3Kqb/A4UZTniuFv114yzn7KJF//eP8zyxZBV08r8xfj++amkpKuA0xjJKOh6/IXuFqPa92Sf/E8FoeucLdVULejwVI7noF2Zco9QqbGmcqBHb+9VCqxqmrFFqNQtPz/prCum9nDycBar6WweHiwvv/3GhEX1Rt3TtAAAAAElFTkSuQmCC;direction=south;" vertex="1" parent="1">
          <mxGeometry x="430" y="452" width="102.92" height="92.5" as="geometry" />
        </mxCell>
        <mxCell id="s62vTvY1Cet1UzhglGSs-4" value="" style="shape=image;verticalLabelPosition=bottom;labelBackgroundColor=default;verticalAlign=top;aspect=fixed;imageAspect=0;image=https://upload.wikimedia.org/wikipedia/commons/thumb/a/a2/OpenID_logo_2.svg/1200px-OpenID_logo_2.svg.png;" vertex="1" parent="1">
          <mxGeometry x="225" y="459" width="193.34" height="72.5" as="geometry" />
        </mxCell>
      </root>
    </mxGraphModel>
  </diagram>
</mxfile>
